<svg width="227" height="57" viewBox="0 0 227 57" fill="none" xmlns="http://www.w3.org/2000/svg">
<path d="M213.168 43.8117C215.734 43.8117 217.364 46.0219 216.97 48.7754C216.614 51.379 214.498 53.4394 212.007 53.4394C210.808 53.4394 209.984 52.8962 209.422 52.2219L208.785 56.5487C208.766 56.7173 208.691 56.7548 208.523 56.7548H206.612C206.444 56.7548 206.312 56.5674 206.331 56.3989L208.036 44.28C208.054 44.1114 208.167 44.0177 208.335 44.0177H210.04C210.208 44.0177 210.34 44.205 210.321 44.3736L210.246 45.1041C211.033 44.2987 212.007 43.8117 213.168 43.8117ZM211.875 51.1917C213.374 51.1917 214.666 49.7307 214.666 48.1385C214.666 46.9772 213.88 46.0594 212.643 46.0594C211.164 46.0594 209.871 47.4267 209.871 49.1125C209.871 50.33 210.658 51.1917 211.875 51.1917Z" fill="white"/>
<path d="M202.834 43.8117C204.913 43.8117 206.186 45.3102 205.849 47.7639L205.119 52.9336C205.1 53.0835 204.988 53.1959 204.8 53.1959H202.908C202.74 53.1959 202.628 53.046 202.646 52.9149L203.339 48.0823C203.545 46.5464 202.834 46.0969 202.009 46.0969C200.567 46.0969 199.705 47.2769 199.612 47.9325L198.919 52.9336C198.9 53.0835 198.788 53.1959 198.6 53.1959H196.709C196.54 53.1959 196.428 53.046 196.446 52.9149L197.121 48.0823C197.345 46.5464 196.634 46.0969 195.809 46.0969C194.367 46.0969 193.468 47.5391 193.412 47.9699L192.7 52.9336C192.681 53.0835 192.569 53.1959 192.382 53.1959H190.49C190.321 53.1959 190.209 53.046 190.228 52.9149L191.445 44.28C191.464 44.1114 191.576 44.0177 191.745 44.0177H193.543C193.712 44.0177 193.843 44.205 193.824 44.3736L193.73 45.4413C194.461 44.4673 195.491 43.8117 196.765 43.8117C198.057 43.8117 199.031 44.4673 199.425 45.5349C200.249 44.486 201.41 43.8117 202.834 43.8117Z" fill="white"/>
<path d="M189.534 44.0177C189.702 44.0177 189.852 44.205 189.815 44.3736L188.616 52.9898C188.597 53.1584 188.522 53.1959 188.354 53.1959H186.631C186.462 53.1959 186.35 53.0086 186.35 52.84L186.368 52.2031C185.582 52.9524 184.589 53.4394 183.54 53.4394C181.161 53.4394 179.606 51.6412 179.606 49.2811C179.606 46.3965 181.835 43.8117 184.664 43.8117C185.881 43.8117 186.78 44.4111 187.361 45.254L187.548 44.2612C187.586 44.0926 187.679 44.0177 187.848 44.0177H189.534ZM183.989 51.1917C185.488 51.1917 186.78 49.7307 186.78 48.1385C186.78 46.9772 186.012 46.0594 184.757 46.0594C183.278 46.0594 181.985 47.4268 181.985 49.1125C181.985 50.33 182.772 51.1917 183.989 51.1917Z" fill="white"/>
<path d="M179.123 44.0177C179.291 44.0177 179.441 44.1676 179.404 44.3736L179.217 45.7784C179.179 45.9845 179.029 46.0407 178.861 46.0407H177.587L176.613 52.9337C176.594 53.0835 176.482 53.1959 176.295 53.1959H174.403C174.234 53.1959 174.122 53.046 174.14 52.9149L175.114 46.0407H173.86C173.691 46.0407 173.541 45.8908 173.579 45.6848L173.766 44.28C173.803 44.0739 173.953 44.0177 174.122 44.0177H175.395L175.751 41.4703C175.77 41.3017 175.882 41.2081 176.051 41.2081H177.924C178.093 41.2081 178.224 41.3954 178.205 41.564L177.868 44.0177H179.123Z" fill="white"/>
<path d="M166.882 43.8679C166.882 45.9095 172.371 45.2727 172.371 49.0751C172.371 51.7349 169.954 53.4394 167.351 53.4394C165.384 53.4394 163.886 52.3717 163.192 51.3041C163.099 51.1542 163.136 50.9856 163.249 50.8732L164.335 49.843C164.466 49.7119 164.616 49.7307 164.785 49.8805C165.646 50.5923 166.433 51.0418 167.538 51.0418C168.774 51.0418 169.879 50.3113 169.879 49.2998C169.879 47.2394 164.429 47.6703 164.429 44.0364C164.429 41.5827 166.564 39.9344 168.943 39.9344C170.629 39.9344 171.846 40.6836 172.689 41.7325C172.839 41.9199 172.876 42.051 172.745 42.1821L171.678 43.231C171.546 43.3621 171.34 43.3434 171.209 43.2497C170.385 42.6316 169.786 42.3319 168.905 42.3319C167.707 42.3319 166.882 42.9688 166.882 43.8679Z" fill="white"/>
<path d="M158.659 44.3361C158.772 44.4673 158.846 44.5796 158.772 44.7108L158.078 46.0219C157.985 46.1905 157.854 46.1718 157.685 46.1343C157.46 46.0781 157.236 46.0594 156.955 46.0594C155.718 46.0594 154.801 46.9959 154.651 48.1198L153.958 52.9336C153.939 53.0835 153.827 53.1959 153.639 53.1959H151.747C151.579 53.1959 151.466 53.046 151.485 52.9149L152.703 44.28C152.721 44.1114 152.834 44.0177 153.002 44.0177H154.782C154.95 44.0177 155.082 44.205 155.063 44.3736L154.988 45.254C155.606 44.3736 156.393 43.8117 157.404 43.8117C157.985 43.8117 158.434 44.0926 158.659 44.3361Z" fill="white"/>
<path d="M146.858 43.8117C149.574 43.8117 151.035 46.0032 150.679 48.5506C150.585 49.2249 150.511 49.5246 149.949 49.5246H143.973C144.011 50.7609 144.816 51.4352 146.202 51.4352C147.045 51.4352 147.645 51.2104 148.263 50.7421C148.45 50.611 148.581 50.6672 148.712 50.8171L149.462 51.6787C149.574 51.8098 149.649 52.0346 149.462 52.1844C148.469 52.9898 147.214 53.4394 145.94 53.4394C143.018 53.4394 141.314 51.2479 141.688 48.4757C142.063 45.8533 144.254 43.8117 146.858 43.8117ZM146.746 45.9095C145.622 45.9095 144.648 46.6213 144.217 47.9138H148.581C148.637 46.6026 147.869 45.9095 146.746 45.9095Z" fill="white"/>
<path d="M136.817 43.8117C139.383 43.8117 141.013 46.0219 140.619 48.7754C140.264 51.379 138.147 53.4394 135.656 53.4394C134.457 53.4394 133.633 52.8962 133.071 52.2219L132.434 56.5487C132.415 56.7173 132.34 56.7548 132.172 56.7548H130.261C130.093 56.7548 129.962 56.5674 129.98 56.3989L131.685 44.28C131.704 44.1114 131.816 44.0177 131.985 44.0177H133.689C133.858 44.0177 133.989 44.205 133.97 44.3736L133.895 45.1041C134.682 44.2987 135.656 43.8117 136.817 43.8117ZM135.525 51.1917C137.023 51.1917 138.316 49.7307 138.316 48.1385C138.316 46.9772 137.529 46.0594 136.293 46.0594C134.813 46.0594 133.52 47.4267 133.52 49.1125C133.52 50.33 134.307 51.1917 135.525 51.1917Z" fill="white"/>
<path d="M129.684 44.0177C129.853 44.0177 129.984 44.205 129.965 44.3736L128.748 52.9898C128.729 53.1584 128.673 53.1959 128.504 53.1959H126.669C126.5 53.1959 126.369 53.0086 126.388 52.84L126.463 51.9409C125.713 52.84 124.721 53.4394 123.597 53.4394C121.48 53.4394 120.225 51.9409 120.562 49.4871L121.311 44.2237C121.33 44.0552 121.386 44.0177 121.555 44.0177H123.466C123.634 44.0177 123.784 44.205 123.765 44.3736L123.091 49.1687C122.866 50.7046 123.634 51.1542 124.44 51.1542C125.826 51.1542 126.706 49.9741 126.8 49.2998L127.511 44.2237C127.53 44.0552 127.605 44.0177 127.774 44.0177H129.684Z" fill="white"/>
<path d="M113.853 43.8679C113.853 45.9095 119.342 45.2727 119.342 49.0751C119.342 51.7349 116.925 53.4394 114.322 53.4394C112.355 53.4394 110.856 52.3717 110.163 51.3041C110.07 51.1542 110.107 50.9856 110.22 50.8732L111.306 49.843C111.437 49.7119 111.587 49.7307 111.756 49.8805C112.617 50.5923 113.404 51.0418 114.509 51.0418C115.745 51.0418 116.85 50.3113 116.85 49.2998C116.85 47.2394 111.4 47.6703 111.4 44.0364C111.4 41.5827 113.535 39.9344 115.914 39.9344C117.6 39.9344 118.817 40.6836 119.66 41.7325C119.81 41.9199 119.847 42.051 119.716 42.1821L118.649 43.231C118.517 43.3621 118.311 43.3434 118.18 43.2497C117.356 42.6316 116.757 42.3319 115.876 42.3319C114.678 42.3319 113.853 42.9688 113.853 43.8679Z" fill="white"/>
<path d="M104.937 44.0177C105.143 44.0177 105.293 44.1863 105.18 44.3923L98.6434 56.5487C98.5497 56.7173 98.4186 56.7547 98.2687 56.7547H96.8826C96.6766 56.7547 96.5642 56.5674 96.6766 56.3801L98.4373 53.2333L96.1709 44.2799C96.1334 44.1114 96.1896 44.0177 96.3769 44.0177H97.8005C97.9503 44.0177 98.0627 44.1488 98.1002 44.2799L99.6923 50.9107L103.139 44.2237C103.232 44.0552 103.345 44.0177 103.495 44.0177H104.937Z" fill="white"/>
<path d="M92.8215 46.1531C94.1327 46.4715 95.0505 47.5579 95.0505 49.0002C95.0505 51.8285 92.9152 53.1959 89.7871 53.1959H85.5726C85.404 53.1959 85.2729 53.0273 85.3104 52.8587L87.0711 40.309C87.0898 40.1404 87.1648 40.0842 87.3333 40.0842H91.5665C94.0016 40.0842 95.013 41.3954 95.013 42.9313C95.013 44.4673 94.1327 45.7035 92.8215 46.1531ZM93.065 43.1374C93.065 42.257 92.3532 41.9199 91.2106 41.9199H88.8693L88.3823 45.3851H90.63C92.091 45.3851 93.065 44.4485 93.065 43.1374ZM89.9557 51.3603C91.8662 51.3603 93.0463 50.4237 93.0463 48.7379C93.0463 47.7077 92.297 47.1083 90.6674 47.1083H88.1575L87.5581 51.3603H89.9557Z" fill="white"/>
<path d="M225.633 9.51973C225.844 9.51973 225.99 9.58584 226.069 9.71806C226.175 9.82383 226.188 9.98249 226.109 10.194L215.835 36.0163C215.73 36.3336 215.492 36.4923 215.121 36.4923H210.481C210.243 36.4923 210.071 36.4262 209.965 36.294C209.886 36.1882 209.899 36.0295 210.005 35.818L212.821 28.9955L205.324 10.194C205.298 10.1147 205.284 10.0222 205.284 9.91638C205.284 9.65195 205.456 9.51973 205.8 9.51973H210.6C210.97 9.51973 211.208 9.67839 211.314 9.99572L215.677 21.9747L220.04 9.99572C220.172 9.67839 220.41 9.51973 220.754 9.51973H225.633Z" fill="#FFE001"/>
<path d="M203.467 9.51973C203.652 9.51973 203.797 9.57262 203.903 9.67839C204.009 9.78417 204.062 9.92961 204.062 10.1147V13.7243C204.062 13.9094 204.009 14.0548 203.903 14.1606C203.797 14.2664 203.652 14.3193 203.467 14.3193H200.69V28.3609C200.69 28.546 200.637 28.6914 200.532 28.7972C200.426 28.903 200.28 28.9558 200.095 28.9558H195.335C195.15 28.9558 195.005 28.903 194.899 28.7972C194.793 28.6914 194.74 28.546 194.74 28.3609V14.3193H191.964C191.779 14.3193 191.633 14.2664 191.528 14.1606C191.422 14.0548 191.369 13.9094 191.369 13.7243V10.1147C191.369 9.92961 191.422 9.78417 191.528 9.67839C191.633 9.57262 191.779 9.51973 191.964 9.51973H194.74V4.16489C194.74 3.97978 194.793 3.83434 194.899 3.72856C195.005 3.62279 195.15 3.5699 195.335 3.5699H200.095C200.28 3.5699 200.426 3.62279 200.532 3.72856C200.637 3.83434 200.69 3.97978 200.69 4.16489V9.51973H203.467Z" fill="#FFE001"/>
<path d="M183.239 0.594982C183.239 0.409875 183.292 0.264436 183.398 0.158662C183.504 0.0528872 183.649 0 183.834 0H188.594C188.779 0 188.925 0.0528872 189.03 0.158662C189.136 0.264436 189.189 0.409875 189.189 0.594982V28.3609C189.189 28.546 189.136 28.6914 189.03 28.7972C188.925 28.9029 188.779 28.9558 188.594 28.9558H183.834C183.649 28.9558 183.504 28.9029 183.398 28.7972C183.292 28.6914 183.239 28.546 183.239 28.3609V0.594982Z" fill="#FFE001"/>
<path d="M179.69 9.51974C179.875 9.51974 180.02 9.57263 180.126 9.6784C180.232 9.78418 180.285 9.92962 180.285 10.1147V28.3609C180.285 28.546 180.232 28.6914 180.126 28.7972C180.02 28.903 179.875 28.9559 179.69 28.9559H175.366C175.022 28.9559 174.824 28.7575 174.771 28.3609L174.652 26.9329C173.145 28.6253 171.294 29.4715 169.099 29.4715C167.327 29.4715 165.728 29.022 164.3 28.1229C162.872 27.2238 161.748 25.9942 160.928 24.434C160.135 22.8738 159.738 21.155 159.738 19.2775C159.738 17.4 160.135 15.6811 160.928 14.1209C161.748 12.5608 162.872 11.3311 164.3 10.432C165.728 9.53296 167.327 9.08342 169.099 9.08342C171.241 9.08342 173.092 9.96928 174.652 11.741L174.771 10.1147C174.824 9.71807 175.022 9.51974 175.366 9.51974H179.69ZM169.853 24.0373C171.096 24.0373 172.127 23.5746 172.947 22.649C173.793 21.6971 174.216 20.56 174.216 19.2378C174.216 17.9421 173.793 16.8314 172.947 15.9059C172.127 14.9539 171.096 14.4779 169.853 14.4779C168.583 14.4779 167.526 14.9407 166.679 15.8662C165.86 16.7653 165.45 17.8892 165.45 19.2378C165.45 20.6129 165.86 21.7632 166.679 22.6887C167.526 23.5878 168.583 24.0373 169.853 24.0373Z" fill="#FFE001"/>
<path d="M159.379 9.51973C159.591 9.51973 159.736 9.58584 159.816 9.71806C159.922 9.82383 159.935 9.98249 159.855 10.194L149.582 36.0163C149.476 36.3336 149.238 36.4923 148.868 36.4923H144.227C143.989 36.4923 143.817 36.4262 143.712 36.294C143.632 36.1882 143.645 36.0295 143.751 35.818L146.567 28.9955L139.071 10.194C139.044 10.1147 139.031 10.0222 139.031 9.91638C139.031 9.65195 139.203 9.51973 139.547 9.51973H144.346C144.716 9.51973 144.954 9.67839 145.06 9.99572L149.423 21.9747L153.787 9.99572C153.919 9.67839 154.157 9.51973 154.501 9.51973H159.379Z" fill="#FFE001"/>
<path d="M129.037 29.4715C127.186 29.4715 125.48 29.022 123.92 28.1229C122.386 27.2238 121.17 25.9942 120.271 24.434C119.372 22.8738 118.922 21.155 118.922 19.2775C118.922 17.4 119.372 15.6811 120.271 14.1209C121.17 12.5608 122.386 11.3311 123.92 10.432C125.48 9.53296 127.186 9.08342 129.037 9.08342C130.888 9.08342 132.58 9.53296 134.114 10.432C135.674 11.3311 136.904 12.5608 137.803 14.1209C138.728 15.6811 139.191 17.4 139.191 19.2775C139.191 21.155 138.728 22.8738 137.803 24.434C136.904 25.9942 135.674 27.2238 134.114 28.1229C132.58 29.022 130.888 29.4715 129.037 29.4715ZM129.037 23.958C130.28 23.958 131.324 23.5217 132.17 22.649C133.017 21.7499 133.44 20.6261 133.44 19.2775C133.44 17.9288 133.017 16.8182 132.17 15.9456C131.324 15.0465 130.28 14.5969 129.037 14.5969C127.82 14.5969 126.776 15.0465 125.903 15.9456C125.057 16.8182 124.634 17.9288 124.634 19.2775C124.634 20.6261 125.057 21.7499 125.903 22.649C126.776 23.5217 127.82 23.958 129.037 23.958Z" fill="#FFE001"/>
<path d="M117.146 23.5217C117.331 23.5217 117.477 23.5746 117.583 23.6803C117.688 23.7861 117.741 23.9315 117.741 24.1167V28.3609C117.741 28.546 117.688 28.6914 117.583 28.7972C117.477 28.903 117.331 28.9558 117.146 28.9558H103.025C102.84 28.9558 102.695 28.903 102.589 28.7972C102.483 28.6914 102.43 28.546 102.43 28.3609V1.78495C102.43 1.59985 102.483 1.45441 102.589 1.34863C102.695 1.24286 102.84 1.18997 103.025 1.18997H107.984C108.169 1.18997 108.314 1.24286 108.42 1.34863C108.526 1.45441 108.579 1.59985 108.579 1.78495V23.5217H117.146Z" fill="#FFE001"/>
<path d="M100.635 10.0751C100.82 10.2337 100.913 10.4188 100.913 10.6304C100.913 10.6833 100.886 10.789 100.833 10.9477L99.5244 14.3589C99.4187 14.6763 99.2071 14.8349 98.8898 14.8349C98.7311 14.8349 98.6121 14.8217 98.5328 14.7953C98.4799 14.7688 98.2948 14.7159 97.9775 14.6366C97.6866 14.5308 97.3296 14.4779 96.9065 14.4779C95.7165 14.4779 94.7646 14.8746 94.0506 15.6679C93.3366 16.4612 92.9796 17.4661 92.9796 18.6825V28.3609C92.9796 28.546 92.9267 28.6914 92.821 28.7972C92.7152 28.903 92.5697 28.9559 92.3846 28.9559H87.6248C87.4397 28.9559 87.2942 28.903 87.1884 28.7972C87.0827 28.6914 87.0298 28.546 87.0298 28.3609V10.1147C87.0298 9.92962 87.0827 9.78418 87.1884 9.6784C87.2942 9.57263 87.4397 9.51974 87.6248 9.51974H92.1863C92.5301 9.51974 92.7284 9.71807 92.7813 10.1147L92.9399 12.3757C93.4688 11.3708 94.1431 10.5775 94.9629 9.99573C95.8091 9.38752 96.8007 9.08342 97.9378 9.08342C98.4667 9.08342 98.9691 9.17597 99.4451 9.36108C99.9475 9.54619 100.344 9.78418 100.635 10.0751Z" fill="#00A1EF"/>
<path d="M84.6615 18.9205C84.6615 19.7931 84.569 20.4278 84.3838 20.8244C84.1987 21.1946 83.8153 21.3797 83.2335 21.3797H71.4529C71.7173 22.4639 72.2726 23.2969 73.1188 23.8787C73.9915 24.434 75.1021 24.7116 76.4507 24.7116C77.1118 24.7116 77.7333 24.6323 78.315 24.4736C78.9232 24.2885 79.5579 23.9844 80.219 23.5613C80.3512 23.4556 80.4966 23.4027 80.6553 23.4027C80.7875 23.4027 80.9329 23.482 81.0916 23.6407L83.1542 25.6239C83.26 25.7297 83.3129 25.8619 83.3129 26.0206C83.3129 26.1793 83.2335 26.3379 83.0749 26.4966C82.1229 27.4486 81.0255 28.189 79.7826 28.7179C78.5662 29.2203 77.2573 29.4715 75.8558 29.4715C73.8725 29.4715 72.0875 29.022 70.5009 28.1229C68.9407 27.2238 67.7243 26.0074 66.8517 24.4736C65.979 22.9135 65.5427 21.1814 65.5427 19.2775C65.5427 17.4 65.9658 15.6811 66.812 14.1209C67.6847 12.5608 68.8746 11.3311 70.3819 10.432C71.8892 9.53296 73.5684 9.08342 75.4194 9.08342C77.2441 9.08342 78.8571 9.53296 80.2586 10.432C81.6601 11.3047 82.7443 12.4947 83.5112 14.0019C84.2781 15.4828 84.6615 17.1223 84.6615 18.9205ZM75.4591 14.0813C74.4278 14.0813 73.5419 14.3854 72.8015 14.9936C72.0611 15.6018 71.5851 16.4744 71.3736 17.6115H79.386C79.2009 16.4744 78.7513 15.6018 78.0374 14.9936C77.3234 14.3854 76.464 14.0813 75.4591 14.0813Z" fill="#00A1EF"/>
<path d="M54.6107 9.08342C56.3825 9.08342 57.9823 9.53296 59.4103 10.432C60.8382 11.3311 61.9489 12.5608 62.7422 14.1209C63.5619 15.6811 63.9718 17.4 63.9718 19.2775C63.9718 21.155 63.5619 22.8738 62.7422 24.434C61.9489 25.9942 60.8382 27.2238 59.4103 28.1229C57.9823 29.022 56.3825 29.4715 54.6107 29.4715C52.5746 29.4715 50.8293 28.7443 49.3749 27.2899V35.8973C49.3749 36.0824 49.322 36.2279 49.2162 36.3336C49.1104 36.4394 48.965 36.4923 48.7799 36.4923H44.02C43.8349 36.4923 43.6895 36.4394 43.5837 36.3336C43.4779 36.2279 43.425 36.0824 43.425 35.8973V10.1147C43.425 9.92962 43.4779 9.78418 43.5837 9.6784C43.6895 9.57263 43.8349 9.51974 44.02 9.51974H48.3436C48.6873 9.51974 48.8857 9.71807 48.9386 10.1147L49.0576 11.741C50.6177 9.96928 52.4688 9.08342 54.6107 9.08342ZM53.8571 24.0373C55.1264 24.0373 56.1709 23.5878 56.9907 22.6887C57.8369 21.7632 58.26 20.6129 58.26 19.2378C58.26 17.8892 57.8369 16.7653 56.9907 15.8662C56.1709 14.9407 55.1264 14.4779 53.8571 14.4779C52.6142 14.4779 51.5697 14.9539 50.7235 15.9059C49.9038 16.8314 49.4939 17.9421 49.4939 19.2378C49.4939 20.56 49.9038 21.6971 50.7235 22.649C51.5697 23.5746 52.6142 24.0373 53.8571 24.0373Z" fill="#00A1EF"/>
<path d="M39.8872 9.51973C40.0723 9.51973 40.2178 9.57262 40.3236 9.67839C40.4293 9.78417 40.4822 9.92961 40.4822 10.1147V28.3609C40.4822 28.546 40.4293 28.6914 40.3236 28.7972C40.2178 28.903 40.0723 28.9558 39.8872 28.9558H35.286C34.9423 28.9558 34.7439 28.7575 34.691 28.3609L34.5324 26.2586C33.8448 27.237 33.0119 28.0171 32.0335 28.5988C31.0815 29.1806 30.037 29.4715 28.8999 29.4715C27.4719 29.4715 26.1894 29.1409 25.0523 28.4799C23.9417 27.7923 23.069 26.8139 22.4344 25.5446C21.7997 24.2753 21.4824 22.7945 21.4824 21.1021V10.1147C21.4824 9.92961 21.5353 9.78417 21.6411 9.67839C21.7469 9.57262 21.8923 9.51973 22.0774 9.51973H26.8373C27.0224 9.51973 27.1678 9.57262 27.2736 9.67839C27.3794 9.78417 27.4323 9.92961 27.4323 10.1147V19.9121C27.4323 21.3401 27.7628 22.3714 28.4239 23.006C29.1114 23.6142 29.918 23.9183 30.8435 23.9183C32.007 23.9183 32.9061 23.5613 33.5407 22.8473C34.2018 22.1069 34.5324 21.3136 34.5324 20.4674V10.1147C34.5324 9.92961 34.5853 9.78417 34.691 9.67839C34.7968 9.57262 34.9423 9.51973 35.1274 9.51973H39.8872Z" fill="#00A1EF"/>
<path d="M6.70347 9.00408C6.70347 9.79739 7.06047 10.4188 7.77444 10.8684C8.51487 11.3179 9.66517 11.8203 11.2253 12.3757C12.9177 12.9574 14.3193 13.5392 15.4299 14.1209C16.5405 14.7027 17.4925 15.5621 18.2858 16.6992C19.1056 17.8098 19.5154 19.2642 19.5154 21.0624C19.5154 22.8341 19.0395 24.3546 18.0875 25.6239C17.162 26.8932 15.9455 27.8584 14.4383 28.5195C12.931 29.1542 11.3576 29.4715 9.71805 29.4715C7.78767 29.4715 5.96305 29.0484 4.24421 28.2022C2.52537 27.3296 1.16352 26.2983 0.158662 25.1083C0.0528875 24.8967 0 24.7513 0 24.672C0 24.5662 0.0528875 24.434 0.158662 24.2753L2.89558 21.2211C3.0278 21.0624 3.18646 20.9831 3.37157 20.9831C3.53023 20.9831 3.67567 21.036 3.80789 21.1417C4.86564 22.0144 5.85728 22.6622 6.78281 23.0853C7.73478 23.482 8.76608 23.6803 9.87672 23.6803C10.8816 23.6803 11.7278 23.4423 12.4153 22.9663C13.1293 22.4639 13.4863 21.7896 13.4863 20.9434C13.4863 20.1501 13.1161 19.5154 12.3756 19.0395C11.6352 18.5635 10.4453 18.0082 8.80575 17.3735C7.11335 16.7389 5.72506 16.1307 4.64087 15.5489C3.55668 14.9407 2.61793 14.0945 1.82461 13.0103C1.05775 11.9261 0.674314 10.551 0.674314 8.88509C0.674314 7.24558 1.08419 5.83084 1.90395 4.64087C2.7237 3.42446 3.80789 2.49894 5.15652 1.86429C6.50515 1.2032 7.95955 0.87265 9.51973 0.87265C12.7723 0.87265 15.6547 2.10228 18.1668 4.56154C18.3255 4.72021 18.4048 4.86565 18.4048 4.99786C18.4048 5.13008 18.3519 5.2623 18.2461 5.39452L15.6679 8.52809C15.5092 8.73965 15.3506 8.84542 15.1919 8.84542C15.1126 8.84542 14.9936 8.79253 14.8349 8.68676C13.7772 7.94633 12.8781 7.43068 12.1377 7.1398C11.3972 6.82248 10.5907 6.66382 9.71805 6.66382C8.76608 6.66382 8.02566 6.88859 7.49679 7.33813C6.96791 7.78767 6.70347 8.34299 6.70347 9.00408Z" fill="#00A1EF"/>
</svg>
